# AST/ASF file generated using VICON BodyLanguage
# -----------------------------------------------
:version 1.10
:name VICON
:units
  mass 1.0
  length 0.45
  angle deg
:documentation
   .ast/.asf automatically generated from VICON data using
   VICON BodyBuilder and BodyLanguage model FoxedUp or BRILLIANT.MOD
:root
   order TX TY TZ RX RY RZ
   axis XYZ
   position 0 0 0  
   orientation 0 0 0 
:bonedata
  begin
     id 1 
     name lhipjoint
     direction 0.602128 -0.715006 0.355257 
     length 2.21237 
     axis 0 0 0  XYZ
  end
  begin
     id 2 
     name lfemur
     direction 0.34202 -0.939693 0  
     length 6.71649  
     axis 0 0 20  XYZ
    dof rx ry rz
    limits (-160.0 20.0)
           (-70.0 70.0)
           (-60.0 70.0)
  end
  begin
     id 3 
     name ltibia
     direction 0.34202 -0.939693 0   
     length 6.97123   
     axis 0 0 20   XYZ
    dof rx
    limits (-10.0 170.0)
  end
  begin
     id 4 
     name lfoot
     direction 0.0655697 -0.180151 0.981451   
     length 1.80924   
     axis -90 7.62852e-016 20   XYZ
    dof rx rz
    limits (-45.0 90.0)
           (-70.0 20.0)
  end
  begin
     id 5 
     name ltoes
     direction 1.53545e-011 -4.21827e-011 1   
     length 0.916331   
     axis -90 7.62852e-016 20   XYZ
    dof rx
    limits (-90.0 20.0)
  end
  begin
     id 6 
     name rhipjoint
     direction -0.625414 -0.698792 0.347201   
     length 2.2637  
     axis 0 0 0  XYZ 
  end
  begin
     id 7 
     name rfemur
     direction -0.34202 -0.939693 0   
     length 7.07595   
     axis 0 0 -20   XYZ
    dof rx ry rz
    limits (-160.0 20.0)
           (-70.0 70.0)
           (-70.0 60.0)
  end
  begin
     id 8 
     name rtibia
     direction -0.34202 -0.939693 0   
     length 7.22924   
     axis 0 0 -20   XYZ
    dof rx
    limits (-10.0 170.0)
 end
 begin
     id 9 
     name rfoot
     direction -0.0766747 -0.210662 0.974547   
     length 1.98482  
     axis -90 -7.62852e-016 -20   XYZ
    dof rx rz
    limits (-45.0 90.0)
           (-20.0 70.0)
  end
  begin
     id 10 
     name rtoes
     direction -1.53532e-011 -4.21867e-011 1   
     length 0.999842   
     axis -90 -7.62852e-016 -20   XYZ
    dof rx
    limits (-90.0 20.0)
  end
  begin
     id 11 
     name lowerback
     direction -0.0224668 0.997354 -0.0691422   
     length 2.09945   
     axis 0 0 0   XYZ
    dof rx ry rz
    limits (-20.0 45.0)
           (-30.0 30.0)
           (-30.0 30.0)
  end
  begin
     id 12 
     name upperback
     direction 0.0134698 0.998451 -0.0539888   
     length 2.09758   
     axis 0 0 0   XYZ
    dof rx ry rz
    limits (-20.0 45.0)
           (-30.0 30.0)
           (-30.0 30.0)
  end
  begin
     id 13 
     name thorax
     direction 0.0241905 0.99948 -0.0213333   
     length 2.10428   
     axis 0 0 0   XYZ
    dof rx ry rz
    limits (-20.0 45.0)
           (-30.0 30.0)
           (-30.0 30.0)
  end
  begin
     id 14 
     name lowerneck
     direction -0.00866847 0.995978 0.0891737   
     length 1.3959   
     axis 0 0 0   XYZ
    dof rx ry rz
    limits (-20.0 45.0)
           (-30.0 30.0)
           (-30.0 30.0)
  end
  begin
     id 15 
     name upperneck
     direction 0.0680679 0.992203 0.104404   
     length 1.39452   
     axis 0 0 0   XYZ
    dof rx ry rz
    limits (-20.0 45.0)
           (-30.0 30.0)
           (-30.0 30.0)
  end
  begin
     id 16
     name head
     direction 0.0242216 0.999358 0.0264054  
     length 1.40433  
     axis 0 0 0   XYZ
    dof rx ry rz
    limits (-20.0 45.0)
           (-30.0 30.0)
           (-30.0 30.0)
  end
  begin
     id 17 
     name lclavicle
     direction 0.929368 0.362991 -0.0671771  
     length 3.04887  
     axis 0 0 0   XYZ
    dof ry rz
    limits (-20.0 10.0)
           (0.0 20.0)
  end
  begin
     id 18 
     name lhumerus
     direction 1 -4.48967e-011 -7.13741e-028   
     length 4.77195   
     axis -180 -30 -90   XYZ
    dof rx ry rz
    limits (-60.0 90.0)
           (-90.0 90.0)
           (-90.0 90.0)
  end
  begin
     id 19
     name lradius
     direction 1 -4.48977e-011 3.60404e-027   
     length 2.98444   
     axis -180 -30 -90   XYZ
    dof rx
    limits (-10.0 170.0)
  end
  begin
     id 20
     name lwrist
     direction 1 -4.48997e-011 7.54877e-027   
     length 1.49222   
     axis -7.18178e-015 90 90   XYZ
    dof ry
    limits (-180.0 0.0)
 end
  begin
     id 21 
     name lhand
     direction 1 -4.489e-011 1.51105e-026   
     length 0.992285   
     axis -9.63605e-015 90 90   XYZ
    dof rx rz
    limits (-90.0 90.0)
           (-45.0 45.0)
  end
  begin
     id 22 
     name lfingers
     direction 1 -4.48998e-011 3.01948e-026   
     length 0.800006   
     axis -1.92718e-014 90 90   XYZ
    dof rx
    limits (0.0 90.0)
  end
  begin
     id 23
     name lthumb
     direction 0.707107 -6.34881e-011 0.707107   
     length 1.14865   
     axis -90 45 -3.53137e-014   XYZ
    dof rx rz
    limits (-45.0 45.0)
           (-45.0 45.0)
  end
  begin
     id 24 
     name rclavicle
     direction -0.945672 0.324529 0.0196374   
     length 3.4236  
     axis 0 0 0   XYZ 
    dof ry rz
    limits (-10.0 20.0)
           (-20.0 0.0)
  end
  begin
     id 25 
     name rhumerus
     direction -1 -4.4896e-011 1.02757e-029  
     length 4.62052   
     axis -180 30 90   XYZ
    dof rx ry rz
    limits (-90.0 60.0)
           (-90.0 90.0)
           (-90.0 90.0)
  end
  begin
     id 26 
     name rradius
     direction -1 -4.48982e-011 3.85962e-027   
     length 2.95332   
     axis -180 30 90   XYZ
    dof rx
    limits (-10.0 170.0)
  end
  begin
     id 27 
     name rwrist
     direction -1 -4.48961e-011 7.55118e-027   
     length 1.47666   
     axis -7.18178e-015 -90 -90   XYZ
    dof ry
    limits (-180.0 0.0)
  end
  begin
     id 28
     name rhand
     direction -1 -4.48984e-011 1.50994e-026   
     length 0.990956   
     axis -9.63605e-015 -90 -90   XYZ
    dof rx rz
    limits (-90.0 90.0)
           (-45.0 45.0)
  end
  begin
     id 29
     name rfingers
     direction -1 -4.4892e-011 3.02158e-026   
     length 0.798934   
     axis -1.92718e-014 -90 -90   XYZ
    dof rx
    limits (0.0 90.0)
  end
  begin
     id 30
     name rthumb
     direction -0.707107 -6.34916e-011 0.707107   
     length 1.14711   
     axis -90 -45 3.53137e-014   XYZ
    dof rx rz
    limits (-45.0 45.0)
           (-45.0 45.0)
  end
:hierarchy
  begin
    root lhipjoint rhipjoint lowerback
    lhipjoint lfemur
    lfemur ltibia
    ltibia lfoot
    lfoot ltoes
    rhipjoint rfemur
    rfemur rtibia
    rtibia rfoot
    rfoot rtoes
    lowerback upperback
    upperback thorax
    thorax lowerneck lclavicle rclavicle
    lowerneck upperneck
    upperneck head
    lclavicle lhumerus
    lhumerus lradius
    lradius lwrist
    lwrist lhand lthumb
    lhand lfingers
    rclavicle rhumerus
    rhumerus rradius
    rradius rwrist
    rwrist rhand rthumb
    rhand rfingers
  end

#!OML:ASF H:\ManfredObstacles\Project 1\Capture day 1\Session 1\Male.ASF
:FULLY-SPECIFIED
:DEGREES
273
root 11.1594 16.2382 7.2999 -179.363 -70.4833 -171.875
lowerback -9.3484 -2.5208 -2.7911
upperback 2.27539 -3.10616 1.03127
thorax 7.87034 -1.67494 2.15838
lowerneck -0.163494 0.562794 -5.11457
upperneck -2.06805 0.813339 6.93198
head -0.681565 0.381428 3.1144
rclavicle 5.27773e-014 1.07344e-014
rhumerus -44.3763 -33.8713 -62.142
rradius 22.4379
rwrist 40.0311
rhand 1.81884 -5.81474
rfingers 7.12502
rthumb 27.3313 -33.8534
lclavicle 5.27773e-014 1.07344e-014
lhumerus -24.7246 7.96453 85.149
lradius 20.2373
lwrist -25.6305
lhand -9.43624 10.6538
lfingers 7.12502
lthumb 16.5265 39.97
rfemur -31.9571 4.30657 20.4507
rtibia 29.6385
rfoot -6.83831 13.4912
rtoes 11.2292
lfemur 0.473653 -7.94534 -20.1314
ltibia 14.8847
lfoot 0.84502 -18.8409
ltoes 22.5774
274
root 11.0054 16.2485 7.18384 -180.739 -71.1249 -170.557
lowerback -9.51449 -2.45933 -2.35076
upperback 2.31891 -3.08739 1.18565
thorax 7.99537 -1.65095 2.07023
lowerneck -0.177069 0.616707 -4.86321
upperneck -2.07384 0.883958 6.51633
head -0.680352 0.419501 2.92416
rclavicle -7.11649e-014 2.90226e-014
rhumerus -44.4629 -34.6156 -61.5309
rradius 22.0179
rwrist 41.0282
rhand 1.95472 -5.75612
rfingers 7.12502
rthumb 27.4613 -33.7742
lclavicle -7.11649e-014 2.90226e-014
lhumerus -24.8927 8.9658 84.8417
lradius 20.4144
lwrist -26.1065
lhand -9.11468 11.5028
lfingers 7.12502
lthumb 16.836 40.793
rfemur -31.0908 4.16217 21.0155
rtibia 29.8793
rfoot -8.14218 13.3726
rtoes 8.7745
lfemur -0.0755774 -8.49882 -19.6027
ltibia 17.4435
lfoot 0.396029 -18.6509
ltoes 17.9437
275
root 10.8532 16.2706 7.06868 -184.254 -71.8744 -166.881
lowerback -9.69238 -2.39516 -1.15839
upperback 2.26504 -3.1761 1.49046
thorax 7.99391 -1.64632 1.70227
lowerneck -0.117897 0.681468 -4.94929
upperneck -2.02445 0.96766 6.48652
head -0.680666 0.462418 2.92958
rclavicle -1.09332e-014 3.18055e-015
rhumerus -44.4365 -34.9236 -61.3253
rradius 21.6779
rwrist 41.2408
rhand 1.97937 -5.91919
rfingers 7.12502
rthumb 27.4849 -33.9335
lclavicle -1.09332e-014 3.18055e-015
lhumerus -25.2468 10.2985 84.2328
lradius 20.3976
lwrist -27.0746
lhand -8.61059 10.8215
lfingers 7.12502
lthumb 17.3213 40.0697
rfemur -30.2701 3.69069 22.3552
rtibia 30.067
rfoot -9.13879 13.5931
rtoes 9.16166
lfemur -1.06222 -9.08858 -18.1802
ltibia 20.4071
lfoot 1.09304 -18.2712
ltoes 16.6206
276
root 10.7 16.2902 6.95272 -184.006 -72.4935 -167.409
lowerback -9.60238 -2.32619 -1.26685
upperback 2.20221 -3.05699 1.34398
thorax 7.86636 -1.58785 1.63305
lowerneck -0.0420391 0.723155 -5.17037
upperneck -1.84964 1.01698 6.76785
head -0.645858 0.48642 3.06673
rclavicle 5.14852e-014 -5.56597e-015
rhumerus -44.5449 -35.0053 -61.368
rradius 21.5703
rwrist 41.4573
rhand 1.94576 -5.94589
rfingers 7.12502
rthumb 27.4527 -33.9653
lclavicle 5.14852e-014 -5.56597e-015
lhumerus -25.7165 10.7847 83.7455
lradius 20.4163
lwrist -27.3067
lhand -8.29257 10.2866
lfingers 7.12502
lthumb 17.6273 39.5075
rfemur -29.2364 2.90693 22.3845
rtibia 30.12
rfoot -9.67385 14.3661
rtoes 11.198
lfemur -2.14843 -9.54101 -18.2774
ltibia 24.0211
lfoot 2.54715 -17.4478
ltoes 18.1507
277
root 10.5579 16.2995 6.84179 -182.57 -73.2523 -169.013
lowerback -9.52979 -2.30783 -1.86667
upperback 2.06175 -2.94666 1.22461
thorax 7.69468 -1.55586 1.86762
lowerneck 0.0465541 0.79034 -5.22742
upperneck -1.78678 1.10212 6.78518
head -0.64766 0.528659 3.08266
rclavicle 5.25288e-014 -9.93923e-015
rhumerus -44.5558 -34.5015 -61.6686
rradius 21.7712
rwrist 41.2586
rhand 1.97012 -5.88904
rfingers 7.12502
rthumb 27.476 -33.9048
lclavicle 5.25288e-014 -9.93923e-015
lhumerus -26.1862 10.7148 83.66
lradius 20.5487
lwrist -27.0583
lhand -8.17729 10.3817
lfingers 7.12502
lthumb 17.7382 39.5926
rfemur -28.4791 1.77997 22.1487
rtibia 30.1836
rfoot -10.303 15.1142
rtoes 11.847
lfemur -3.67528 -9.64025 -18.6242
ltibia 27.9588
lfoot 4.99184 -16.3567
ltoes 21.2175
278
root 10.4208 16.32 6.74019 -182.01 -74.1853 -169.616
lowerback -9.44933 -2.25119 -2.06143
upperback 1.91528 -2.84131 1.14714
thorax 7.49193 -1.50812 1.91827
lowerneck 0.154569 0.753471 -5.30445
upperneck -1.77231 1.04893 6.80247
head -0.65932 0.501336 3.10345
rclavicle 4.54223e-014 -1.59028e-015
rhumerus -44.6036 -33.9925 -62.033
rradius 22.1388
rwrist 40.8721
rhand 2.10012 -5.86201
rfingers 7.12502
rthumb 27.6003 -33.8579
lclavicle 4.54223e-014 -1.59028e-015
lhumerus -26.4858 10.0833 83.7073
lradius 20.6531
lwrist -26.6626
lhand -8.12948 10.3883
lfingers 7.12502
lthumb 17.7843 39.5951
rfemur -27.7965 0.394671 22.2295
rtibia 30.2824
rfoot -11.1056 15.8327
rtoes 12.1019
lfemur -5.67902 -9.10867 -18.6474
ltibia 32.1377
lfoot 7.4103 -15.4438
ltoes 18.407
279
root 10.2889 16.336 6.63969 -181.992 -75.0549 -169.692
lowerback -9.34835 -2.15937 -1.97918
upperback 1.84366 -2.71771 0.985075
thorax 7.33786 -1.43807 1.72604
lowerneck 0.0851689 0.725051 -5.31429
upperneck -1.6699 1.01026 6.88485
head -0.612769 0.483078 3.13373
rclavicle 2.49972e-014 2.38542e-015
rhumerus -44.4843 -33.5804 -62.6665
rradius 22.5233
rwrist 40.5564
rhand 2.22682 -5.90472
rfingers 7.12502
rthumb 27.7215 -33.8812
lclavicle 2.49972e-014 2.38542e-015
lhumerus -26.6407 9.24868 83.576
lradius 20.7722
lwrist -26.2823
lhand -8.0349 10.2897
lfingers 7.12502
lthumb 17.8753 39.4882
rfemur -27.0185 -0.737572 22.4388
rtibia 30.2274
rfoot -11.7986 16.2956
rtoes 12.763
lfemur -7.92597 -8.28326 -18.4292
ltibia 36.6076
lfoot 10.8818 -14.1481
ltoes 17.647
280
root 10.1613 16.3581 6.53738 -181.844 -75.8607 -169.819
lowerback -9.33421 -2.11819 -2.04295
upperback 1.79604 -2.64633 0.865856
thorax 7.27236 -1.40189 1.64909
lowerneck 0.0163153 0.771958 -5.28617
upperneck -1.66714 1.0759 6.98274
head -0.604857 0.515656 3.16166
rclavicle -1.77415e-014 9.54166e-015
rhumerus -43.7909 -32.2668 -64.0394
rradius 22.8476
rwrist 39.2077
rhand 2.0922 -5.97334
rfingers 7.12502
rthumb 27.5928 -33.9705
lclavicle -1.77415e-014 9.54166e-015
lhumerus -26.8131 8.94117 83.3497
lradius 20.9848
lwrist -26.2144
lhand -7.93268 10.178
lfingers 7.12502
lthumb 17.9736 39.3674
rfemur -26.2091 -1.57534 22.5954
rtibia 29.9001
rfoot -12.167 16.6098
rtoes 14.7101
lfemur -10.5728 -7.19356 -18.1061
ltibia 41.1981
lfoot 14.5233 -12.7899
ltoes 16.307
281
root 10.0348 16.379 6.43663 -183.231 -76.6346 -168.27
lowerback -9.39455 -1.99564 -1.76061
upperback 1.72757 -2.5136 0.838963
thorax 7.21287 -1.3234 1.48255
lowerneck 0.0268964 0.750292 -5.16583
upperneck -1.77046 1.05078 7.09881
head -0.637984 0.499611 3.17892
rclavicle 4.19436e-014 1.19271e-015
rhumerus -43.1046 -30.8103 -65.5143
rradius 23.1657
rwrist 37.3745
rhand 1.7701 -6.08975
rfingers 7.12502
rthumb 27.2847 -34.1357
lclavicle 4.19436e-014 1.19271e-015
lhumerus -27.0278 8.52512 83.1965
lradius 21.2986
lwrist -26.1609
lhand -7.94482 10.0435
lfingers 7.12502
lthumb 17.9619 39.2341
rfemur -25.434 -2.35201 23.1739
rtibia 29.4124
rfoot -12.5056 16.8932
rtoes 16.3078
lfemur -13.4453 -6.02681 -17.3605
ltibia 45.6659
lfoot 17.1547 -11.972
ltoes 11.0482
282
root 9.90824 16.3965 6.34159 -185.888 -77.33 -165.576
lowerback -9.29957 -1.83254 -1.25084
upperback 1.70668 -2.36129 0.883447
thorax 7.10935 -1.22837 1.27014
lowerneck -0.0323123 0.68887 -5.08865
upperneck -1.79627 0.971853 7.17513
head -0.630507 0.459316 3.19107
rclavicle 3.27995e-014 2.78299e-015
rhumerus -42.6556 -30.3468 -66.2365
rradius 23.4278
rwrist 36.7592
rhand 1.8329 -6.13804
rfingers 7.12502
rthumb 27.3448 -34.1745
lclavicle 3.27995e-014 2.78299e-015
lhumerus -27.2171 8.08443 83.1004
lradius 21.6015
lwrist -25.8492
lhand -7.98952 10.0382
lfingers 7.12502
lthumb 17.9189 39.2328
rfemur -24.4633 -3.04605 23.9502
rtibia 28.8105
rfoot -12.8941 17.0571
rtoes 17.2336
lfemur -16.1278 -5.09995 -16.5501
ltibia 49.9054
lfoot 18.3365 -11.2621
ltoes 12.719
283
root 9.7861 16.4151 6.25593 -187.681 -78.0567 -163.932
lowerback -9.03315 -1.79771 -1.09561
upperback 1.75381 -2.34178 0.969438
thorax 7.00344 -1.21485 1.28339
lowerneck -0.0687785 0.696682 -5.23135
upperneck -1.8512 0.986629 7.17715
head -0.643724 0.468465 3.21924
rclavicle 1.53064e-014 -2.34566e-014
rhumerus -41.8943 -29.9506 -66.7295
rradius 23.5262
rwrist 36.7815
rhand 2.02312 -6.01787
rfingers 7.12502
rthumb 27.5267 -34.0255
lclavicle 1.53064e-014 -2.34566e-014
lhumerus -27.2859 8.42985 82.9966
lradius 21.7197
lwrist -25.6398
lhand -8.11596 10.4351
lfingers 7.12502
lthumb 17.7973 39.6407
rfemur -23.3143 -3.61152 24.3305
rtibia 28.1273
rfoot -13.2084 17.0549
rtoes 18.4203
lfemur -18.6141 -4.17781 -16.2162
ltibia 53.7133
lfoot 16.2106 -10.126
ltoes 12.8508
284
root 9.66769 16.4281 6.17443 -189.914 -78.8023 -161.834
lowerback -8.77897 -1.78111 -0.944106
upperback 1.81083 -2.34837 1.09651
thorax 6.91797 -1.21557 1.33721
lowerneck -0.00257347 0.705908 -5.42025
upperneck -1.99921 1.00315 7.13359
head -0.704861 0.477208 3.24074
rclavicle -3.52843e-015 -2.98177e-014
rhumerus -40.8366 -29.1285 -67.4467
rradius 23.4801
rwrist 36.4325
rhand 1.79572 -6.02262
rfingers 7.12502
rthumb 27.3092 -34.0647
lclavicle -3.52843e-015 -2.98177e-014
lhumerus -27.2064 9.21063 82.8467
lradius 21.5165
lwrist -25.7307
lhand -8.87353 11.4055
lfingers 7.12502
lthumb 17.0682 40.6757
rfemur -22.2659 -4.24605 24.7589
rtibia 27.583
rfoot -13.6457 16.9935
rtoes 18.9747
lfemur -21.0311 -3.25538 -15.9562
ltibia 56.9506
lfoot 13.7393 -9.01471
ltoes 9.48995
285
root 9.54607 16.4416 6.09559 -192.895 -79.4049 -159.026
lowerback -8.5304 -1.70912 -0.680951
upperback 1.88359 -2.29355 1.23252
thorax 6.84609 -1.18221 1.34608
lowerneck 0.0850543 0.695094 -5.49628
upperneck -2.08422 0.988521 7.03461
head -0.746157 0.470164 3.22151
rclavicle -6.95746e-015 6.75868e-015
rhumerus -39.8729 -28.7571 -67.9076
rradius 23.3378
rwrist 36.4447
rhand 1.49778 -6.11804
rfingers 7.12502
rthumb 27.0242 -34.2047
lclavicle -6.95746e-015 6.75868e-015
lhumerus -27.0561 10.4273 82.4752
lradius 20.9824
lwrist -26.3011
lhand -9.98109 12.0711
lfingers 7.12502
lthumb 16.0019 41.4302
rfemur -21.2218 -4.95878 25.3204
rtibia 27.1577
rfoot -14.1872 17.0202
rtoes 18.7964
lfemur -23.293 -2.67907 -15.4871
ltibia 59.4628
lfoot 12.0619 -6.97915
ltoes 11.6412
286
root 9.42804 16.4463 6.02027 -193.731 -80.0327 -158.444
lowerback -8.23628 -1.60959 -0.806545
upperback 1.98163 -2.1442 1.17655
thorax 6.77931 -1.11328 1.386
lowerneck 0.166732 0.63918 -5.40207
upperneck -2.08757 0.910456 6.93758
head -0.75461 0.430225 3.17057
rclavicle -6.4605e-016 -1.55052e-014
rhumerus -39.1333 -29.157 -68.0571
rradius 23.2592
rwrist 37.0668
rhand 1.35724 -6.11549
rfingers 7.12502
rthumb 26.8897 -34.2229
lclavicle -6.4605e-016 -1.55052e-014
lhumerus -26.9488 11.9473 81.877
lradius 20.4089
lwrist -27.2611
lhand -9.82425 11.3387
lfingers 7.12502
lthumb 16.1529 40.6856
rfemur -20.2383 -5.38139 25.3321
rtibia 26.9046
rfoot -14.5995 16.9267
rtoes 19.503
lfemur -25.336 -2.05555 -15.6322
ltibia 61.1969
lfoot 10.1763 -5.88912
ltoes 10.9511
